<svg id="Layer_3" enable-background="new 0 0 64 64" height="35" viewBox="0 0 64 64" width="35" xmlns="http://www.w3.org/2000/svg"><path d="m63 38c0-2.757-2.243-5-5-5h-.082c-1.386-2.387-3.964-4-6.918-4s-5.532 1.613-6.918 4h-.082v-9.228c0-2.073-1.304-3.954-3.245-4.682l-4.755-1.783v-1.389c2.387-1.386 4-3.964 4-6.918 0-4.411-3.589-8-8-8s-8 3.589-8 8c0 2.953 1.613 5.532 4 6.918v1.389l-4.755 1.784c-1.941.727-3.245 2.608-3.245 4.681v9.228h-.082c-1.386-2.387-3.964-4-6.918-4s-5.532 1.613-6.918 4h-.082c-2.757 0-5 2.243-5 5v10c0 1.055.327 2.051.924 2.89-.585.828-.924 1.829-.924 2.882v8.228c0 .552.448 1 1 1h22c.552 0 1-.448 1-1v-8.228c0-.261-.021-.519-.061-.772h14.122c-.04.253-.061.511-.061.772v8.228c0 .552.448 1 1 1h22c.552 0 1-.448 1-1v-8.228c0-1.055-.341-2.059-.929-2.888.597-.839.929-1.834.929-2.884zm-2 0v10c0 .539-.152 1.05-.417 1.504-.262-.159-.535-.303-.828-.413l-4.755-1.784v-3.389c2.387-1.386 4-3.964 4-6.918 0-.652-.087-1.282-.235-1.889 1.283.341 2.235 1.501 2.235 2.889zm-10 5c-2.24 0-4.193-1.236-5.224-3.059 1.655.682 3.436 1.059 5.224 1.059s3.569-.377 5.224-1.059c-1.031 1.824-2.984 3.059-5.224 3.059zm-2 1.737c.641.166 1.308.263 2 .263s1.359-.097 2-.263v2.263h-4zm2-13.737c3.309 0 6 2.691 6 6 0 .132-.011.262-.02.392l-.744.372c-3.235 1.618-7.236 1.618-10.472 0l-.744-.372c-.009-.13-.02-.26-.02-.392 0-3.309 2.691-6 6-6zm-9-7.228v9.228h-8.719l1.689-6.757c.046-.185.039-.378-.021-.559l-.805-2.414.563-.563c.268-.268.361-.664.242-1.023l-.668-2.003.847-.565 4.925 1.847c1.165.437 1.947 1.565 1.947 2.809zm-10.555-2.94c.168.112.362.168.555.168s.387-.056.555-.168l.002-.001.3.899-.857.856-.856-.856.3-.899zm.005 3.979c.168.114.355.189.55.189s.382-.075.55-.189l.41 1.229-.96 3.837-.959-3.837zm.55-21.811c2.382 0 4.438 1.398 5.406 3.414l-4.09-1.363c-.218-.072-.452-.067-.667.012l-6.447 2.417c.676-2.573 3.015-4.48 5.798-4.48zm-5.959 6.678 6.979-2.617 4.966 1.656c.004.094.014.187.014.283 0 3.309-2.691 6-6 6-3.079 0-5.621-2.332-5.959-5.322zm5.959 7.322c.692 0 1.359-.097 2-.263v.728l-2 1.333-2-1.333v-.728c.641.166 1.308.263 2 .263zm-10 6.772c0-1.244.782-2.372 1.947-2.809l4.925-1.847.847.565-.668 2.003c-.12.359-.026.756.242 1.023l.563.563-.805 2.414c-.06.181-.067.375-.021.559l1.689 6.757h-8.719zm-7 23.228h-4v-2.263c.641.166 1.308.263 2 .263s1.359-.097 2-.263zm-2-4c-2.24 0-4.193-1.236-5.224-3.059 1.655.682 3.436 1.059 5.224 1.059s3.569-.377 5.224-1.059c-1.031 1.824-2.984 3.059-5.224 3.059zm0-12c3.309 0 6 2.691 6 6 0 .132-.011.262-.02.392l-.744.372c-3.236 1.618-7.236 1.618-10.472 0l-.744-.372c-.009-.13-.02-.26-.02-.392 0-3.309 2.691-6 6-6zm-10 7c0-1.388.952-2.548 2.235-2.889-.148.607-.235 1.237-.235 1.889 0 2.953 1.613 5.532 4 6.918v3.389l-4.755 1.783c-.293.11-.565.253-.826.412-.265-.452-.419-.961-.419-1.502zm20 23h-20v-7.228c0-1.244.782-2.372 1.947-2.809l5.234-1.963h5.638l5.234 1.963c1.165.437 1.947 1.565 1.947 2.809zm1.149-10c-.57-.853-1.395-1.535-2.393-1.91l-4.756-1.783v-3.389c2.387-1.386 4-3.964 4-6.918 0-.692-.097-1.359-.263-2h.263 22 .263c-.166.641-.263 1.308-.263 2 0 2.953 1.613 5.532 4 6.918v3.389l-4.755 1.784c-.998.374-1.823 1.056-2.393 1.91h-15.703zm36.851 10h-20v-7.228c0-1.244.782-2.372 1.947-2.809l5.234-1.963h5.638l5.234 1.963c1.165.437 1.947 1.565 1.947 2.809z"/></svg>